<?xml version="1.0" encoding="utf-8"?>
<!-- Generator: Adobe Illustrator 23.0.1, SVG Export Plug-In . SVG Version: 6.00 Build 0)  -->
<svg version="1.1" id="Layer_1" xmlns="http://www.w3.org/2000/svg" xmlns:xlink="http://www.w3.org/1999/xlink" x="0px" y="0px"
	 viewBox="0 0 558.67 143.66" style="enable-background:new 0 0 558.67 143.66;" xml:space="preserve">
<style type="text/css">
	.st0{fill:#ffffff;}
</style>
<path class="st0" d="M116.88,20.41v103.42v5.73v0H94.91v0h-0.4L9,20.41h26.86l59.05,75.37V20.41H116.88z M142.15,20.41v109.15h21.98
	V20.41H142.15z M268.49,97.58c-6.25,7.08-15.37,11.57-25.55,11.57c-18.84,0-34.16-15.32-34.16-34.16
	c0-18.84,15.33-34.16,34.16-34.16c10.17,0,19.29,4.48,25.55,11.56l13.7-17.48c-10.12-9.92-23.96-16.05-39.25-16.05
	c-31,0-56.14,25.13-56.14,56.14c0,31,25.13,56.14,56.14,56.14c15.29,0,29.13-6.14,39.25-16.05L268.49,97.58z M354.94,40.83
	c-18.84,0-34.16,15.32-34.16,34.16s15.32,34.16,34.16,34.16c18.84,0,34.16-15.32,34.16-34.16S373.77,40.83,354.94,40.83
	 M354.94,18.85c31,0,56.14,25.13,56.14,56.14s-25.13,56.14-56.14,56.14c-31,0-56.14-25.13-56.14-56.14S323.94,18.85,354.94,18.85
	L354.94,18.85z M538.81,20.41h-21.98v75.21l-58.92-75.21l-22.25,0v109.15h21.98V54.36l58.92,75.21h22.25L538.81,20.41z"/>
<path class="st0" d="M1173.39,10.77v103.42v5.73v0h-21.98v0h-0.4L1065.5,10.77h26.86l59.05,75.37V10.77H1173.39z"/>
</svg>
